<?xml version="1.0" encoding="UTF-8"?>
<svg version="1.1" xmlns="http://www.w3.org/2000/svg" width="128" height="128">
<path d="M0 0 C3.5 0.25 3.5 0.25 5.5 2.25 C5.89190384 8.09827533 5.06874154 13.16845668 3.65161133 18.8215332 C3.45481781 19.63718246 3.25802429 20.45283173 3.05526733 21.29319763 C2.4074627 23.96493392 1.74571424 26.63294822 1.08203125 29.30078125 C0.62294332 31.16540193 0.16410007 33.03008287 -0.29450989 34.89482117 C-1.25541944 38.79072198 -2.2241429 42.68458658 -3.19750977 46.57739258 C-4.44376498 51.56720673 -5.66278026 56.56324742 -6.87516308 61.56138325 C-7.81295665 65.40891478 -8.76879952 69.25179172 -9.72979164 73.09358788 C-10.18717196 74.93439777 -10.63803267 76.77684029 -11.08223534 78.6208744 C-11.70418729 81.19420209 -12.35108723 83.75998348 -13.00463867 86.32543945 C-13.1830278 87.0875473 -13.36141693 87.84965515 -13.54521179 88.63485718 C-14.45903246 92.11625425 -15.16119416 93.97403364 -17.98799133 96.27653503 C-20.5 97.25 -20.5 97.25 -23.1875 96.75 C-26.19694471 94.79792776 -26.62003025 93.7261255 -27.5 90.25 C-27.05785095 87.26147777 -26.49965928 84.54233426 -25.73925781 81.63598633 C-25.5281839 80.78015457 -25.31710999 79.92432281 -25.09963989 79.04255676 C-24.39898643 76.21843398 -23.67650762 73.40041014 -22.953125 70.58203125 C-22.46068023 68.62127092 -21.96938314 66.66022202 -21.47918701 64.69889832 C-20.44931377 60.5918243 -19.40927845 56.48750776 -18.36132812 52.38500977 C-17.01656106 47.11931264 -15.69148343 41.84891459 -14.37321854 36.5765276 C-13.35985097 32.52856597 -12.33903683 28.48251398 -11.31563568 24.43707848 C-10.82439575 22.49376328 -10.3348142 20.55002811 -9.84690094 18.60587502 C-9.16451255 15.89398299 -8.47284473 13.18463566 -7.77832031 10.47583008 C-7.57665253 9.66801086 -7.37498474 8.86019165 -7.16720581 8.02789307 C-5.18245173 0.37017512 -5.18245173 0.37017512 0 0 Z " fill="#FF4C60" transform="translate(74.5,15.75)"/>
<path d="M0 0 C1.91526681 1.52412077 3.49972793 3.19874127 5.15234375 5.00390625 C6.98516403 6.98397214 8.89581565 8.73799844 10.9375 10.5 C11.5975 11.0775 12.2575 11.655 12.9375 12.25 C14.34917552 13.44778529 15.78862839 14.61337764 17.25 15.75 C17.971875 16.3275 18.69375 16.905 19.4375 17.5 C20.09621094 18.0053125 20.75492188 18.510625 21.43359375 19.03125 C23.82349315 22.03501384 24.04871875 24.19181773 24 28 C22.32710873 30.43950378 20.90934508 32.12150978 18.8125 34.125 C17.70066216 35.24494258 16.59002044 36.36607368 15.48046875 37.48828125 C14.90474121 38.0601416 14.32901367 38.63200195 13.73583984 39.22119141 C11.9966247 41.00345885 10.36182789 42.84265821 8.73828125 44.73046875 C7.95457153 45.63031494 7.95457153 45.63031494 7.1550293 46.54833984 C6.15454472 47.70192234 5.16458888 48.86474325 4.18676758 50.03759766 C1.74605692 52.78909924 0.47081559 53.93802065 -3.234375 54.42578125 C-6 54 -6 54 -7.875 52.875 C-9.64855328 49.91907786 -9.65436789 48.40271303 -9 45 C-7.48063756 43.09071269 -5.81360378 41.51191014 -4.01171875 39.8671875 C-1.31024449 37.35979974 1.02772942 34.59377405 3.421875 31.796875 C4.88881269 30.12659942 6.40956293 28.55211328 8 27 C6.6292602 23.8523436 5.12631122 21.97924814 2.5234375 19.7578125 C1.853125 19.16613281 1.1828125 18.57445313 0.4921875 17.96484375 C-0.91987842 16.73775325 -2.3392049 15.51896847 -3.765625 14.30859375 C-8.87902642 9.75786392 -8.87902642 9.75786392 -9.53125 5.671875 C-9 3 -9 3 -7.875 1.125 C-4.91907786 -0.64855328 -3.40271303 -0.65436789 0 0 Z " fill="#FF4D60" transform="translate(94,37)"/>
<path d="M0 0 C2.7265625 0.41015625 2.7265625 0.41015625 4.6015625 1.53515625 C6.37511578 4.49107839 6.38093039 6.00744322 5.7265625 9.41015625 C3.12912897 12.83404591 -0.19663703 15.48994616 -3.44921875 18.26953125 C-4.15433594 18.8728125 -4.85945313 19.47609375 -5.5859375 20.09765625 C-6.24207031 20.63777344 -6.89820312 21.17789063 -7.57421875 21.734375 C-9.36986536 23.50525407 -10.28455519 25.10611067 -11.2734375 27.41015625 C-10.70496094 27.96703125 -10.13648437 28.52390625 -9.55078125 29.09765625 C-4.56247368 34.02766974 0.16361799 39.08672099 4.7265625 44.41015625 C5.0565625 44.74015625 5.3865625 45.07015625 5.7265625 45.41015625 C6.1822587 50.65066258 6.1822587 50.65066258 4.6015625 53.28515625 C1.64564036 55.05870953 0.12927553 55.06452414 -3.2734375 54.41015625 C-5.94990963 52.37972912 -8.07918502 49.94272959 -10.2734375 47.41015625 C-10.81742188 46.7965625 -11.36140625 46.18296875 -11.921875 45.55078125 C-13.05756994 44.26046118 -14.18081336 42.95910117 -15.29296875 41.6484375 C-16.79687085 39.94876116 -18.37019954 38.31021979 -19.97265625 36.703125 C-20.89691406 35.76082031 -21.82117188 34.81851563 -22.7734375 33.84765625 C-24.08828125 32.54634766 -24.08828125 32.54634766 -25.4296875 31.21875 C-27.2734375 28.41015625 -27.2734375 28.41015625 -27.3203125 24.83203125 C-26.14011615 20.97437451 -25.12386259 19.72799975 -22.0234375 17.22265625 C-18.8908979 14.62120814 -15.83074577 12.02390688 -12.9296875 9.16796875 C-12.36411133 8.61778076 -11.79853516 8.06759277 -11.21582031 7.50073242 C-10.10641018 6.41708903 -9.00636917 5.3237513 -7.91699219 4.2199707 C-5.25929956 1.67128824 -3.70176988 0.46382558 0 0 Z " fill="#FF4C60" transform="translate(37.2734375,36.58984375)"/>
</svg>
